External Loads File
version=1
nRows=93
nColumns=13
Range=5.000000e-03-10 seconds
endheader
time 	forceRightX 	forceRightY 	forceRightZ 	pointRightX 	pointRightY 	pointRightZ 	forceLeftX 	forceLeftY 	forceLeftZ 	pointLeftX 	pointLeftY 	pointLeftZ 		
5.005000 -195.814684 600.593674 -0.000000 0.380916 0.390649 -0.100150 127.755835 55.256558 -0.000000 0.097338 0.250435 -0.335424
5.010000 -207.987265 643.456032 -0.000000 0.384064 0.379695 -0.099879 130.232924 52.961318 -0.000000 0.094628 0.260336 -0.335349
5.015000 -219.580350 683.387224 -0.000000 0.386215 0.368704 -0.099851 131.268843 49.433041 -0.000000 0.092612 0.270425 -0.335340
5.020000 -229.901244 720.207047 -0.000000 0.388024 0.357704 -0.099644 130.770184 44.935359 -0.000000 0.091211 0.280480 -0.335385
5.025000 -237.877286 754.089952 -0.000000 0.389146 0.346696 -0.099475 128.764396 39.726830 -0.000000 0.090486 0.290835 -0.335469
5.030000 -243.695696 784.996127 -0.000000 0.389770 0.335669 -0.099506 125.290703 34.318425 -0.000000 0.090361 0.301118 -0.335549
5.035000 -246.482513 813.399128 -0.000000 0.389842 0.324569 -0.099516 120.576499 29.023022 -0.000000 0.090859 0.311496 -0.335746
5.040000 -246.658645 839.552112 -0.000000 0.389464 0.313482 -0.099642 114.930389 24.274631 -0.000000 0.092438 0.321796 -0.336887
5.045000 -242.900695 864.304094 -0.000000 0.388501 0.302238 -0.099461 108.794748 20.120420 -0.000000 0.094214 0.332249 -0.337088
5.050000 -236.671985 887.604763 -0.000000 0.386972 0.291150 -0.099716 102.493113 16.793999 -0.000000 0.096168 0.342650 -0.336412
5.055000 -226.826103 909.915514 -0.000000 0.384887 0.280202 -0.099642 96.240476 14.013900 -0.000000 0.099125 0.353145 -0.336599
5.060000 -215.250493 930.599209 -0.000000 0.382068 0.269589 -0.099481 89.979714 11.754593 -0.000000 0.102690 0.363138 -0.336694
5.065000 -199.795521 949.657335 -0.000000 0.378828 0.259267 -0.099229 83.566736 9.581150 -0.000000 0.106746 0.373293 -0.336718
5.070000 -180.582414 966.156161 -0.000000 0.375153 0.249216 -0.099151 76.776859 7.359208 -0.000000 0.111467 0.383412 -0.336764
5.075000 -157.867927 978.888466 -0.000000 0.370767 0.239537 -0.098888 69.413516 5.013388 -0.000000 0.116593 0.393458 -0.336754
5.080000 -132.198209 986.481565 -0.000000 0.365954 0.230091 -0.098577 61.310138 2.570883 -0.000000 0.122199 0.403278 -0.336588
5.085000 -104.404500 987.587055 -0.000000 0.360896 0.220912 -0.098228 52.340230 0.209896 -0.000000 0.128391 0.412839 -0.336462
5.090000 -75.453685 981.084888 -0.000000 0.355391 0.212291 -0.097972 42.503186 -1.745309 -0.000000 0.134973 0.422288 -0.336325
5.095000 -46.763675 966.209281 -0.000000 0.349500 0.204193 -0.097743 31.985047 -2.880511 -0.000000 0.142025 0.431210 -0.336186
5.100000 -18.091634 942.729031 -0.000000 0.343310 0.196544 -0.097518 21.098872 -2.859314 -0.000000 0.149878 0.439574 -0.336413
5.105000 8.465249 910.720833 -0.000000 0.336816 0.189421 -0.097278 10.210561 -1.378336 -0.000000 0.157702 0.447592 -0.336380
5.110000 33.467556 870.608571 -0.000000 0.330034 0.182778 -0.096952 -0.331162 1.663390 -0.000000 0.165995 0.455133 -0.336351
5.115000 54.850161 823.056652 -0.000000 0.322996 0.176746 -0.096557 -10.238072 6.266102 -0.000000 0.174353 0.461732 -0.336630
5.120000 73.476772 768.786484 -0.000000 0.315756 0.171171 -0.096125 -19.318246 12.342161 -0.000000 0.182768 0.468056 -0.336790
5.125000 88.854951 708.664349 -0.000000 0.308142 0.166073 -0.095618 -27.488013 19.790841 -0.000000 0.190958 0.474093 -0.336651
5.130000 101.374447 643.557888 -0.000000 0.300473 0.161615 -0.095253 -34.714705 28.563583 -0.000000 0.199706 0.479381 -0.336689
5.135000 110.938759 574.507045 -0.000000 0.292678 0.157640 -0.094799 -40.998364 38.596253 -0.000000 0.208730 0.484185 -0.336524
5.140000 117.018044 502.858464 -0.000000 0.284746 0.154261 -0.094423 -46.418829 49.702086 -0.000000 0.217648 0.488394 -0.336574
5.145000 120.334311 429.972578 -0.000000 0.276455 0.151498 -0.093981 -51.049478 61.667846 -0.000000 0.226400 0.491846 -0.336624
5.150000 121.831758 357.340286 -0.000000 0.267766 0.149671 -0.093661 -54.979759 74.265592 -0.000000 0.235198 0.494797 -0.336519
5.155000 122.204063 286.644176 -0.000000 0.258534 0.148724 -0.093445 -58.383935 87.246561 -0.000000 0.243899 0.497106 -0.336693
5.160000 122.114151 219.544819 -0.000000 0.248818 0.148565 -0.093276 -61.496783 100.367583 -0.000000 0.252445 0.498750 -0.336963
5.165000 122.253795 157.386139 -0.000000 0.238570 0.149372 -0.093373 -64.494432 113.473584 -0.000000 0.260925 0.499467 -0.336682
5.170000 122.666809 101.475046 -0.000000 0.228120 0.151125 -0.093441 -67.810141 126.403513 -0.000000 0.269143 0.499550 -0.336806
5.175000 123.388448 52.706686 -0.000000 0.217530 0.153462 -0.093614 -71.795251 139.307437 -0.000000 0.277202 0.498772 -0.337016
5.180000 124.103226 11.828603 -0.000000 0.206799 0.156617 -0.093831 -76.835626 152.543442 -0.000000 0.284965 0.497204 -0.337287
5.185000 124.410369 -20.463221 -0.000000 0.196586 0.160387 -0.093907 -83.442593 166.465702 -0.000000 0.292481 0.494796 -0.337620
5.190000 124.009007 -43.944170 -0.000000 0.186952 0.164447 -0.093907 -91.851951 181.531212 -0.000000 0.299733 0.491435 -0.338087
5.195000 122.694796 -58.789069 -0.000000 0.177583 0.168961 -0.094366 -102.291388 198.230845 -0.000000 0.306415 0.487664 -0.338568
5.200000 120.470723 -65.769491 -0.000000 0.168824 0.173918 -0.094569 -114.883074 217.176066 -0.000000 0.312798 0.483027 -0.339124
5.205000 117.594505 -66.289106 -0.000000 0.160387 0.179483 -0.094641 -129.556029 239.064586 -0.000000 0.318692 0.477428 -0.339614
5.210000 114.569879 -62.139088 -0.000000 0.152390 0.185742 -0.094903 -146.181463 264.498353 -0.000000 0.324324 0.471050 -0.340115
5.215000 111.987274 -55.201949 -0.000000 0.144831 0.192621 -0.095096 -164.645852 293.816125 -0.000000 0.329700 0.464029 -0.340616
5.220000 110.248942 -47.278171 -0.000000 0.137560 0.200215 -0.095347 -184.477572 327.171990 -0.000000 0.334848 0.456430 -0.341127
5.225000 109.549501 -39.667257 -0.000000 0.130807 0.208382 -0.095528 -205.201377 364.286453 -0.000000 0.339910 0.448231 -0.341251
5.230000 109.874322 -33.040419 -0.000000 0.124597 0.216793 -0.095778 -226.489832 404.397510 -0.000000 0.344795 0.439650 -0.341242
5.235000 110.959297 -27.857891 -0.000000 0.119006 0.225595 -0.096123 -246.883630 447.074078 -0.000000 0.349406 0.430195 -0.341360
5.240000 112.582003 -23.854885 -0.000000 0.114002 0.234619 -0.096137 -266.538414 490.870969 -0.000000 0.353596 0.420783 -0.341274
5.245000 114.412179 -20.969437 -0.000000 0.109574 0.243883 -0.096147 -284.751738 534.966821 -0.000000 0.357261 0.411271 -0.341066
5.250000 116.115264 -19.325344 -0.000000 0.105758 0.253433 -0.096118 -300.162138 579.188598 -0.000000 0.360704 0.401283 -0.340756
5.255000 117.392469 -19.083987 -0.000000 0.102626 0.263202 -0.096117 -311.223917 623.754800 -0.000000 0.363704 0.390023 -0.340527
5.260000 118.166466 -19.243833 -0.000000 0.100014 0.273256 -0.095930 -322.743664 666.020363 -0.000000 0.366310 0.380252 -0.340344
5.265000 118.109696 -20.543063 -0.000000 0.098099 0.283426 -0.095843 -330.396299 708.135288 -0.000000 0.368324 0.369415 -0.340213
5.270000 117.095875 -22.590574 -0.000000 0.096755 0.293785 -0.095641 -335.823906 749.438202 -0.000000 0.369870 0.358497 -0.340093
5.275000 114.999906 -25.213770 -0.000000 0.096119 0.304218 -0.095626 -339.473742 790.053084 -0.000000 0.370907 0.347461 -0.339908
5.280000 111.741178 -28.287660 -0.000000 0.096182 0.314695 -0.095608 -341.403723 830.343121 -0.000000 0.371570 0.336308 -0.339722
5.285000 107.287221 -31.664209 -0.000000 0.096751 0.325302 -0.095676 -341.693506 870.539611 -0.000000 0.371698 0.325205 -0.339447
5.290000 101.610638 -35.289957 -0.000000 0.098030 0.335824 -0.095683 -339.421778 911.032989 -0.000000 0.371380 0.313782 -0.339292
5.295000 94.826698 -38.817008 -0.000000 0.099764 0.346398 -0.095835 -336.006170 951.091540 -0.000000 0.370613 0.302749 -0.339062
5.300000 87.013540 -42.159231 -0.000000 0.102276 0.356905 -0.095839 -330.382705 990.723311 -0.000000 0.369021 0.291962 -0.338739
5.305000 78.326415 -45.089133 -0.000000 0.105344 0.367189 -0.095809 -322.474657 1029.349588 -0.000000 0.366987 0.281388 -0.338521
5.310000 68.886041 -47.475946 -0.000000 0.108132 0.377538 -0.096875 -310.998278 1066.505972 -0.000000 0.364387 0.270893 -0.338280
5.315000 58.831802 -49.172675 -0.000000 0.112489 0.387560 -0.096905 -295.022315 1101.280511 -0.000000 0.361291 0.260751 -0.338070
5.320000 48.330740 -50.044017 -0.000000 0.117144 0.397299 -0.097064 -274.105466 1132.404326 -0.000000 0.357643 0.250648 -0.337889
5.325000 37.565680 -50.013001 -0.000000 0.122504 0.407041 -0.097157 -247.787594 1158.544611 -0.000000 0.353457 0.241079 -0.337760
5.330000 26.834675 -49.015449 -0.000000 0.128366 0.416219 -0.097186 -217.824283 1177.990911 -0.000000 0.348823 0.231854 -0.337621
5.335000 16.316113 -47.165278 -0.000000 0.134702 0.425242 -0.097304 -183.318720 1189.835096 -0.000000 0.343781 0.222941 -0.337504
5.340000 6.231729 -44.586556 -0.000000 0.141485 0.434029 -0.097500 -145.371357 1193.004818 -0.000000 0.338399 0.214261 -0.337404
5.345000 -3.205578 -41.454430 -0.000000 0.148564 0.442468 -0.097780 -106.434372 1186.528197 -0.000000 0.332600 0.206202 -0.337259
5.350000 -11.930806 -37.956251 -0.000000 0.156076 0.450591 -0.098059 -66.328528 1169.948526 -0.000000 0.326392 0.198589 -0.337303
5.355000 -19.924595 -34.210938 -0.000000 0.164900 0.458195 -0.097241 -25.144351 1142.893126 -0.000000 0.319928 0.192004 -0.337158
5.360000 -27.104280 -30.353104 -0.000000 0.172839 0.465113 -0.098025 11.998856 1105.173407 -0.000000 0.313108 0.185013 -0.337096
5.365000 -33.652101 -26.290960 -0.000000 0.181195 0.471624 -0.097858 46.884459 1057.121901 -0.000000 0.305964 0.178479 -0.337046
5.370000 -39.598830 -21.945535 -0.000000 0.189609 0.477610 -0.098587 76.460456 999.572092 -0.000000 0.298627 0.172852 -0.337021
5.375000 -45.028927 -17.082018 -0.000000 0.198456 0.482967 -0.098778 102.103966 933.761972 -0.000000 0.291033 0.167780 -0.337017
5.380000 -49.931524 -11.611782 -0.000000 0.207238 0.487686 -0.099131 122.174978 861.447574 -0.000000 0.283208 0.163279 -0.337032
5.385000 -54.378087 -5.355754 -0.000000 0.216242 0.491962 -0.099458 137.572776 784.176190 -0.000000 0.275180 0.159223 -0.337111
5.390000 -58.445105 1.789694 -0.000000 0.225318 0.495477 -0.099719 147.577605 703.696543 -0.000000 0.267013 0.156114 -0.337089
5.395000 -62.187441 10.083756 -0.000000 0.234585 0.498380 -0.100117 153.172230 621.530327 -0.000000 0.258619 0.153567 -0.337110
5.400000 -65.608559 19.687825 -0.000000 0.243840 0.500626 -0.100580 154.179563 539.602401 -0.000000 0.250070 0.151511 -0.337227
5.405000 -68.698493 30.699485 -0.000000 0.252852 0.502065 -0.100768 150.969658 459.935287 -0.000000 0.241331 0.150124 -0.337293
5.410000 -71.386478 43.214774 -0.000000 0.262001 0.502858 -0.101099 144.904256 384.318426 -0.000000 0.232401 0.149558 -0.337312
5.415000 -73.699128 57.069379 -0.000000 0.271002 0.503093 -0.101467 136.432469 314.770133 -0.000000 0.223305 0.149168 -0.337350
5.420000 -75.680991 72.162635 -0.000000 0.279869 0.502440 -0.101903 126.772659 252.772301 -0.000000 0.214078 0.149962 -0.337407
5.425000 -77.437752 88.409662 -0.000000 0.288625 0.501090 -0.102251 116.924296 199.392137 -0.000000 0.204744 0.151628 -0.337279
5.430000 -79.142848 105.793477 -0.000000 0.297114 0.498901 -0.102411 107.669270 155.238503 -0.000000 0.195353 0.153976 -0.337200
5.435000 -80.974103 124.444669 -0.000000 0.305365 0.495883 -0.102446 99.708263 120.437597 -0.000000 0.186001 0.157001 -0.337172
5.440000 -83.184311 144.547644 -0.000000 0.313291 0.492106 -0.102762 93.487215 94.816204 -0.000000 0.176837 0.160841 -0.336949
5.445000 -85.989545 166.355338 -0.000000 0.320952 0.487642 -0.102785 89.308506 77.845171 -0.000000 0.167865 0.165223 -0.336833
5.450000 -89.675382 190.112707 -0.000000 0.328124 0.482427 -0.102692 87.273116 68.682022 -0.000000 0.159206 0.170215 -0.336695
5.455000 -94.346241 216.185207 -0.000000 0.334959 0.476503 -0.102489 87.420714 66.056049 -0.000000 0.150847 0.175678 -0.336542
5.460000 -99.969938 244.960567 -0.000000 0.341363 0.469778 -0.102238 89.694496 68.421290 -0.000000 0.142872 0.182030 -0.336428
5.465000 -106.880945 276.560604 -0.000000 0.347267 0.462516 -0.102039 93.829849 74.235341 -0.000000 0.135265 0.188736 -0.336285
